HIERARCHY
ROOT Pelvis
{
	OFFSET 0.000000 0.000000 0.000000
	CHANNELS 6 Xposition Yposition Zposition Xrotation Yrotation Zrotation
	JOINT LeftUpLeg_virtual
	{
		OFFSET 0.000000 0.000000 0.000000
		CHANNELS 3 Xrotation Yrotation Zrotation
		JOINT LeftUpLeg
		{
			OFFSET 18.735201 -5.666702 -4.541200
			CHANNELS 3 Xrotation Yrotation Zrotation
			JOINT LeftLeg
			{
				OFFSET -0.021200 -31.938179 0.493100
				CHANNELS 3 Xrotation Yrotation Zrotation
				JOINT LeftFoot
				{
					OFFSET 0.021200 -31.938179 -4.336299
					CHANNELS 3 Xrotation Yrotation Zrotation
					JOINT LeftToeBase
					{
						OFFSET 0.943001 -26.722000 15.023500
						CHANNELS 3 Xrotation Yrotation Zrotation
						End Site
						{
							OFFSET 0 0 0
						}
					}
				}
			}
		}
	}
	JOINT RightUpLeg_virtual
	{
		OFFSET 0.000000 0.000000 0.000000
		CHANNELS 3 Xrotation Yrotation Zrotation
		JOINT RightUpLeg
		{
			OFFSET -18.735201 -5.666702 -4.541200
			CHANNELS 3 Xrotation Yrotation Zrotation
			JOINT RightLeg
			{
				OFFSET 0.018946 -31.938133 0.493100
				CHANNELS 3 Xrotation Yrotation Zrotation
				JOINT RightFoot
				{
					OFFSET -0.018946 -31.938126 -4.336299
					CHANNELS 3 Xrotation Yrotation Zrotation
					JOINT RightToeBase
					{
						OFFSET -0.943001 -26.722004 15.023500
						CHANNELS 3 Xrotation Yrotation Zrotation
						End Site
						{
							OFFSET 0 0 0
						}
					}
				}
			}
		}
	}
	JOINT Hips_virtual
	{
		OFFSET 0.000000 0.000000 0.000000
		CHANNELS 3 Xrotation Yrotation Zrotation
		JOINT Hips
		{
			OFFSET -0.000000 -0.000000 -0.000000
			CHANNELS 3 Xrotation Yrotation Zrotation
			JOINT Spine
			{
				OFFSET 0.000000 10.199997 -0.299500
				CHANNELS 3 Xrotation Yrotation Zrotation
				JOINT Spine1
				{
					OFFSET 0.000000 11.900002 -1.516600
					CHANNELS 3 Xrotation Yrotation Zrotation
					JOINT Spine2
					{
						OFFSET 0.000000 13.600006 -2.842500
						CHANNELS 3 Xrotation Yrotation Zrotation
						JOINT Neck_virtual
						{
							OFFSET 0.000000 0.000000 0.000000
							CHANNELS 3 Xrotation Yrotation Zrotation
							JOINT Neck
							{
								OFFSET 0.000000 9.624100 -2.890100
								CHANNELS 3 Xrotation Yrotation Zrotation
								JOINT Head
								{
									OFFSET 0.000000 14.068802 -1.351900
									CHANNELS 3 Xrotation Yrotation Zrotation
									End Site
									{
										OFFSET 0 0 0
									}
								}
							}
						}
						JOINT LeftShoulder_virtual
						{
							OFFSET 0.000000 0.000000 0.000000
							CHANNELS 3 Xrotation Yrotation Zrotation
							JOINT LeftShoulder
							{
								OFFSET 15.263000 10.923401 -0.547700
								CHANNELS 3 Xrotation Yrotation Zrotation
								JOINT LeftArm
								{
									OFFSET 25.438599 -2.830597 -13.032500
									CHANNELS 3 Xrotation Yrotation Zrotation
									JOINT LeftForeArm
									{
										OFFSET 29.960503 0.000000 0.000000
										CHANNELS 3 Xrotation Yrotation Zrotation
										JOINT LeftHand
										{
											OFFSET 27.849251 0.000000 0.000000
											CHANNELS 3 Xrotation Yrotation Zrotation
											End Site
											{
												OFFSET 0 0 0
											}
										}
									}
								}
							}
						}
						JOINT RightShoulder_virtual
						{
							OFFSET 0.000000 0.000000 0.000000
							CHANNELS 3 Xrotation Yrotation Zrotation
							JOINT RightShoulder
							{
								OFFSET -15.263000 10.923401 -0.547700
								CHANNELS 3 Xrotation Yrotation Zrotation
								JOINT RightArm
								{
									OFFSET -25.438599 -2.830597 -13.032500
									CHANNELS 3 Xrotation Yrotation Zrotation
									JOINT RightForeArm
									{
										OFFSET -29.960503 0.000000 0.000000
										CHANNELS 3 Xrotation Yrotation Zrotation
										JOINT RightHand
										{
											OFFSET -27.849251 0.000000 0.000000
											CHANNELS 3 Xrotation Yrotation Zrotation
											End Site
											{
												OFFSET 0 0 0
											}
										}
									}
								}
							}
						}
					}
				}
			}
		}
	}
}
MOTION
Frames: 9
Frame Time: 0.03333333
-5.415225 90.576202 11.016224 0.000000 0.000000 0.000000 170.227288 -60.409827 167.225953 -1.718982 11.647206 20.832395 22.793156 20.920813 1.861922 -10.890761 8.614839 -29.868964 0.000000 0.000000 0.000000 170.227288 -60.409827 167.225953 -29.996651 -17.728943 -17.909270 29.025558 -16.288135 3.005291 -3.355420 -0.613082 9.946649 0.000000 0.000000 0.000000 170.227288 -60.409827 167.225953 0.000000 0.000000 0.000000 10.606785 -1.000154 -0.086561 -2.398482 -2.056337 2.718429 0.000000 0.000000 0.000000 -2.356986 -1.768261 2.869752 -0.657295 3.995744 0.662270 0.000000 0.000000 0.000000 -2.356986 -1.768261 2.869752 0.705977 3.275487 -11.637329 -4.210786 -8.950366 -59.610592 5.910700 -15.225788 -6.974028 0.000000 0.000000 0.000000 -2.356986 -1.768261 2.869752 0.703464 1.524169 16.490406 17.133157 25.354796 44.976236 15.517505 24.279250 -5.951852 0.000000 0.000000 0.000000 
-5.254373 90.374504 9.633633 0.000000 0.000000 0.000000 170.555028 -58.634114 167.641160 -1.105264 11.276413 22.001491 23.106945 22.193112 1.957882 -7.905108 8.520763 -32.700542 0.000000 0.000000 0.000000 170.555028 -58.634114 167.641160 -32.253851 -21.089208 -17.855025 30.146693 -12.497779 1.971282 -3.716280 0.393062 8.686431 0.000000 0.000000 0.000000 170.555028 -58.634114 167.641160 0.000000 0.000002 0.000000 10.501419 -1.099956 -0.114468 -2.304557 -2.290403 3.051410 0.000000 0.000000 0.000000 -2.253755 -1.967693 3.217101 -0.720966 3.632725 0.444598 0.000000 0.000000 0.000000 -2.253755 -1.967693 3.217101 0.768061 3.463239 -12.577564 -3.044087 -9.903320 -59.428315 7.177351 -16.260061 -6.053561 0.000000 0.000000 0.000000 -2.253755 -1.967693 3.217101 0.701263 1.355158 15.823434 16.534495 25.640260 45.312711 15.474304 24.341829 -5.985871 0.000000 0.000000 0.000000 
-5.094303 90.195023 8.265984 0.000000 0.000000 0.000000 171.015806 -56.974655 168.130311 -0.878345 11.302641 23.338531 23.880857 22.975590 2.023026 -5.041063 8.088897 -35.068151 0.000000 0.000000 0.000000 171.015806 -56.974655 168.130311 -33.781651 -23.282319 -17.382063 31.297942 -9.788144 1.049297 -4.168334 1.154407 7.619581 0.000000 0.000000 0.000000 171.015806 -56.974655 168.130311 0.000000 0.000000 0.000000 10.604385 -1.210558 0.007771 -2.282223 -2.483309 3.172532 0.000000 0.000000 0.000000 -2.225454 -2.139751 3.353372 -0.802624 3.263771 0.349953 0.000000 0.000000 0.000000 -2.225454 -2.139751 3.353372 0.793941 3.860548 -12.834929 -2.590068 -10.725965 -59.685301 6.796633 -15.986958 -5.978531 0.000000 0.000000 0.000000 -2.225454 -2.139751 3.353372 0.708321 1.125617 15.555423 16.276320 26.099153 45.427626 15.667838 24.549525 -6.236645 0.000000 0.000000 0.000000 
-4.909590 90.023521 6.797297 0.000000 0.000000 0.000000 171.991827 -55.166321 168.929771 -0.572618 11.846786 24.804628 24.921735 23.571278 2.066944 -2.560316 7.418448 -36.938261 0.000000 0.000000 0.000000 171.991827 -55.166321 168.929771 -34.176535 -23.370587 -16.180006 32.487378 -8.458996 0.664380 -4.290837 1.352073 7.089840 0.000000 0.000000 0.000000 171.991827 -55.166321 168.929771 0.000000 -0.000002 0.000000 11.009322 -1.250198 0.642532 -2.311409 -2.458905 2.656138 0.000000 0.000000 0.000000 -2.266520 -2.142672 2.841964 -0.874976 2.833504 0.539656 0.000000 0.000000 0.000000 -2.266520 -2.142672 2.841964 0.698518 3.486603 -11.418155 -2.788108 -10.705282 -61.013581 6.324321 -14.736739 -5.900933 0.000000 0.000000 0.000000 -2.266520 -2.142672 2.841964 0.748265 0.713205 16.348351 16.070863 26.382591 45.353528 15.509613 24.754771 -6.377437 0.000000 0.000000 0.000000 
-4.739767 89.827332 5.213421 0.000000 0.000000 0.000000 172.760496 -53.155811 169.426353 -0.399513 12.549049 26.455213 25.909602 24.221820 2.111567 0.262235 6.363075 -38.790024 0.000000 0.000000 0.000000 172.760496 -53.155811 169.426353 -34.158684 -22.515539 -14.415659 33.579679 -7.801276 0.559560 -4.353312 1.301034 6.599263 0.000000 0.000000 0.000000 172.760496 -53.155811 169.426353 0.000000 -0.000001 0.000000 11.168402 -1.238702 1.004663 -2.184789 -2.521676 2.559260 0.000000 0.000000 0.000000 -2.144793 -2.198690 2.749640 -0.930871 2.485865 0.550778 0.000000 0.000000 0.000000 -2.144793 -2.198690 2.749640 0.681288 3.502415 -11.167991 -2.297084 -10.737608 -61.310373 5.153917 -14.651651 -6.270497 0.000000 0.000000 0.000000 -2.144793 -2.198690 2.749640 0.766243 0.445091 16.434289 15.582544 26.635748 45.617123 14.845664 25.297042 -6.337003 0.000000 0.000000 0.000000 
-4.598763 89.661285 3.709721 0.000000 0.000000 0.000000 173.511530 -51.427062 169.941131 -0.490700 12.665210 27.947988 27.212677 24.947503 2.159009 3.480354 5.036334 -40.374081 0.000000 0.000000 0.000000 173.511530 -51.427062 169.941131 -33.915216 -22.267038 -12.919567 34.668176 -6.992318 0.554509 -5.217494 1.356889 5.782449 0.000000 0.000000 0.000000 173.511530 -51.427062 169.941131 0.000000 -0.000002 0.000000 11.397859 -1.310897 1.280787 -2.093802 -2.609034 2.423810 0.000000 0.000000 0.000000 -2.055909 -2.284434 2.622429 -0.968084 2.161767 0.599993 0.000000 0.000000 0.000000 -2.055909 -2.284434 2.622429 0.644779 3.403153 -10.563916 -1.632835 -11.382661 -61.919503 3.998709 -14.232981 -6.452460 0.000000 0.000000 0.000000 -2.055909 -2.284434 2.622429 0.777891 0.388699 16.739624 15.280474 26.543228 45.682416 14.567410 25.923073 -6.424952 0.000000 0.000000 0.000000 
-4.522289 89.679626 1.972464 0.000000 0.000000 0.000000 174.140645 -49.652634 170.534387 -1.683264 12.072657 29.101285 29.487419 25.191679 2.151686 4.870951 2.712382 -38.595623 0.000000 0.000000 0.000000 174.140645 -49.652634 170.534387 -33.245106 -21.965048 -11.360973 35.286212 -6.143318 0.570262 -6.095964 1.353565 4.898459 0.000000 0.000000 0.000000 174.140645 -49.652634 170.534387 0.000000 -0.000005 0.000000 11.611220 -1.410809 1.237672 -2.160636 -2.728502 2.375056 0.000000 0.000000 0.000000 -2.119564 -2.394221 2.586980 -0.867178 1.837065 0.620253 0.000000 0.000000 0.000000 -2.119564 -2.394221 2.586980 0.616038 3.362022 -10.121744 -0.446452 -12.343794 -62.399352 2.775078 -14.128391 -6.587223 0.000000 0.000000 0.000000 -2.119564 -2.394221 2.586980 0.775141 0.477986 16.844432 15.144362 26.393570 45.879289 14.868229 26.329939 -6.676946 0.000000 0.000000 0.000000 
-4.460221 89.790787 0.041836 0.000000 0.000000 0.000000 174.687839 -47.634699 171.206860 -3.698859 10.606874 29.416365 32.928957 23.818519 2.019128 5.720448 2.289800 -35.196142 0.000000 0.000000 0.000000 174.687839 -47.634699 171.206860 -32.459771 -21.266578 -9.660042 36.018333 -5.320280 0.596321 -7.383452 1.207579 3.953320 0.000000 0.000000 0.000000 174.687839 -47.634699 171.206860 0.000000 0.000003 0.000000 11.667436 -1.507521 0.867420 -2.160470 -2.818632 2.452643 0.000000 0.000000 0.000000 -2.110941 -2.471369 2.672020 -0.794508 1.510065 0.598100 0.000000 0.000000 0.000000 -2.110941 -2.471369 2.672020 0.627324 3.531727 -10.270284 0.357094 -11.615875 -62.359402 5.604697 -15.044246 -6.218478 0.000000 0.000000 0.000000 -2.110941 -2.471369 2.672020 0.788392 0.184542 16.670892 15.286160 27.759345 45.615890 14.693122 25.957249 -6.506602 0.000000 0.000000 0.000000 
-4.388663 89.927917 -1.807398 0.000000 0.000000 0.000000 175.350531 -45.707035 171.981472 -6.061107 8.669784 29.255158 36.816557 24.834383 2.082120 6.282427 -0.652813 -30.691025 0.000000 0.000000 0.000000 175.350531 -45.707035 171.981472 -31.448527 -20.582159 -8.068538 36.527992 -4.525928 0.622003 -8.567552 1.104648 2.992415 0.000000 0.000000 0.000000 175.350531 -45.707035 171.981472 0.000000 -0.000001 0.000001 12.020647 -1.563390 0.515691 -2.351958 -2.866231 2.499392 0.000000 0.000000 0.000000 -2.294729 -2.503725 2.730778 -0.626769 1.200664 0.592107 0.000000 0.000000 0.000000 -2.294729 -2.503725 2.730778 0.636046 3.559047 -10.423447 0.865302 -10.035155 -62.360037 5.980790 -15.224084 -6.819161 0.000000 0.000000 0.000000 -2.294729 -2.503725 2.730778 0.783943 -0.163218 16.607694 16.005029 28.907222 45.018299 14.671842 25.924939 -6.468441 0.000000 0.000000 0.000000 
